<mxfile host="app.diagrams.net" modified="2024-03-04T23:51:02.310Z" agent="Mozilla/5.0 (Windows NT 10.0; Win64; x64; rv:123.0) Gecko/20100101 Firefox/123.0" etag="FQ92eMu6CFfECbtMkALo" version="24.0.1" type="device">
  <diagram name="PÃ¡gina-1" id="7f8mWTMIb4V9EI5L-56I">
    <mxGraphModel dx="1450" dy="608" grid="0" gridSize="10" guides="1" tooltips="1" connect="1" arrows="1" fold="1" page="0" pageScale="1" pageWidth="850" pageHeight="1100" math="0" shadow="0">
      <root>
        <mxCell id="0" />
        <mxCell id="1" parent="0" />
        <mxCell id="tjj3ngpdNGX2Q6P404Zo-4" value="" style="edgeStyle=none;curved=1;rounded=0;orthogonalLoop=1;jettySize=auto;html=1;fontFamily=Helvetica;fontSize=12;fontColor=default;startSize=8;endSize=8;" parent="1" source="tjj3ngpdNGX2Q6P404Zo-2" target="tjj3ngpdNGX2Q6P404Zo-3" edge="1">
          <mxGeometry relative="1" as="geometry" />
        </mxCell>
        <mxCell id="tjj3ngpdNGX2Q6P404Zo-2" value="" style="ellipse;whiteSpace=wrap;html=1;aspect=fixed;" parent="1" vertex="1">
          <mxGeometry x="-253" y="158" width="42" height="42" as="geometry" />
        </mxCell>
        <mxCell id="tjj3ngpdNGX2Q6P404Zo-6" value="" style="edgeStyle=none;curved=1;rounded=0;orthogonalLoop=1;jettySize=auto;html=1;fontFamily=Helvetica;fontSize=12;fontColor=default;startSize=8;endSize=8;" parent="1" source="tjj3ngpdNGX2Q6P404Zo-3" target="tjj3ngpdNGX2Q6P404Zo-5" edge="1">
          <mxGeometry relative="1" as="geometry" />
        </mxCell>
        <mxCell id="tjj3ngpdNGX2Q6P404Zo-40" value="" style="edgeStyle=none;curved=1;rounded=0;orthogonalLoop=1;jettySize=auto;html=1;fontFamily=Helvetica;fontSize=12;fontColor=default;startSize=8;endSize=8;exitX=0.369;exitY=0.06;exitDx=0;exitDy=0;exitPerimeter=0;" parent="1" source="tjj3ngpdNGX2Q6P404Zo-3" target="tjj3ngpdNGX2Q6P404Zo-39" edge="1">
          <mxGeometry relative="1" as="geometry" />
        </mxCell>
        <mxCell id="tjj3ngpdNGX2Q6P404Zo-47" value="" style="edgeStyle=none;curved=1;rounded=0;orthogonalLoop=1;jettySize=auto;html=1;fontFamily=Helvetica;fontSize=12;fontColor=default;startSize=8;endSize=8;entryX=0;entryY=0.5;entryDx=0;entryDy=0;" parent="1" source="tjj3ngpdNGX2Q6P404Zo-3" target="tjj3ngpdNGX2Q6P404Zo-46" edge="1">
          <mxGeometry relative="1" as="geometry" />
        </mxCell>
        <mxCell id="tjj3ngpdNGX2Q6P404Zo-56" value="" style="edgeStyle=none;curved=1;rounded=0;orthogonalLoop=1;jettySize=auto;html=1;fontFamily=Helvetica;fontSize=12;fontColor=default;startSize=8;endSize=8;" parent="1" source="tjj3ngpdNGX2Q6P404Zo-3" target="tjj3ngpdNGX2Q6P404Zo-55" edge="1">
          <mxGeometry relative="1" as="geometry" />
        </mxCell>
        <mxCell id="tjj3ngpdNGX2Q6P404Zo-3" value="" style="ellipse;whiteSpace=wrap;html=1;aspect=fixed;" parent="1" vertex="1">
          <mxGeometry x="-158" y="158" width="42" height="42" as="geometry" />
        </mxCell>
        <mxCell id="tjj3ngpdNGX2Q6P404Zo-8" value="" style="edgeStyle=none;curved=1;rounded=0;orthogonalLoop=1;jettySize=auto;html=1;fontFamily=Helvetica;fontSize=12;fontColor=default;startSize=8;endSize=8;" parent="1" source="tjj3ngpdNGX2Q6P404Zo-5" target="tjj3ngpdNGX2Q6P404Zo-7" edge="1">
          <mxGeometry relative="1" as="geometry" />
        </mxCell>
        <mxCell id="tjj3ngpdNGX2Q6P404Zo-5" value="" style="ellipse;whiteSpace=wrap;html=1;aspect=fixed;" parent="1" vertex="1">
          <mxGeometry x="-68" y="158" width="42" height="42" as="geometry" />
        </mxCell>
        <mxCell id="tjj3ngpdNGX2Q6P404Zo-10" value="" style="edgeStyle=none;curved=1;rounded=0;orthogonalLoop=1;jettySize=auto;html=1;fontFamily=Helvetica;fontSize=12;fontColor=default;startSize=8;endSize=8;" parent="1" source="tjj3ngpdNGX2Q6P404Zo-7" target="tjj3ngpdNGX2Q6P404Zo-9" edge="1">
          <mxGeometry relative="1" as="geometry" />
        </mxCell>
        <mxCell id="tjj3ngpdNGX2Q6P404Zo-7" value="" style="ellipse;whiteSpace=wrap;html=1;aspect=fixed;" parent="1" vertex="1">
          <mxGeometry x="18" y="158" width="42" height="42" as="geometry" />
        </mxCell>
        <mxCell id="tjj3ngpdNGX2Q6P404Zo-12" value="" style="edgeStyle=none;curved=1;rounded=0;orthogonalLoop=1;jettySize=auto;html=1;fontFamily=Helvetica;fontSize=12;fontColor=default;startSize=8;endSize=8;" parent="1" source="tjj3ngpdNGX2Q6P404Zo-9" target="tjj3ngpdNGX2Q6P404Zo-11" edge="1">
          <mxGeometry relative="1" as="geometry" />
        </mxCell>
        <mxCell id="tjj3ngpdNGX2Q6P404Zo-9" value="" style="ellipse;whiteSpace=wrap;html=1;aspect=fixed;" parent="1" vertex="1">
          <mxGeometry x="109" y="158" width="42" height="42" as="geometry" />
        </mxCell>
        <mxCell id="tjj3ngpdNGX2Q6P404Zo-14" value="" style="edgeStyle=none;curved=1;rounded=0;orthogonalLoop=1;jettySize=auto;html=1;fontFamily=Helvetica;fontSize=12;fontColor=default;startSize=8;endSize=8;" parent="1" source="tjj3ngpdNGX2Q6P404Zo-11" target="tjj3ngpdNGX2Q6P404Zo-13" edge="1">
          <mxGeometry relative="1" as="geometry" />
        </mxCell>
        <mxCell id="tjj3ngpdNGX2Q6P404Zo-11" value="" style="ellipse;whiteSpace=wrap;html=1;aspect=fixed;" parent="1" vertex="1">
          <mxGeometry x="193" y="158" width="42" height="42" as="geometry" />
        </mxCell>
        <mxCell id="tjj3ngpdNGX2Q6P404Zo-16" value="" style="edgeStyle=none;curved=1;rounded=0;orthogonalLoop=1;jettySize=auto;html=1;fontFamily=Helvetica;fontSize=12;fontColor=default;startSize=8;endSize=8;" parent="1" source="tjj3ngpdNGX2Q6P404Zo-13" target="tjj3ngpdNGX2Q6P404Zo-15" edge="1">
          <mxGeometry relative="1" as="geometry" />
        </mxCell>
        <mxCell id="tjj3ngpdNGX2Q6P404Zo-13" value="" style="ellipse;whiteSpace=wrap;html=1;aspect=fixed;" parent="1" vertex="1">
          <mxGeometry x="277" y="158" width="42" height="42" as="geometry" />
        </mxCell>
        <mxCell id="tjj3ngpdNGX2Q6P404Zo-18" value="" style="edgeStyle=none;curved=1;rounded=0;orthogonalLoop=1;jettySize=auto;html=1;fontFamily=Helvetica;fontSize=12;fontColor=default;startSize=8;endSize=8;" parent="1" source="tjj3ngpdNGX2Q6P404Zo-15" target="tjj3ngpdNGX2Q6P404Zo-17" edge="1">
          <mxGeometry relative="1" as="geometry" />
        </mxCell>
        <mxCell id="tjj3ngpdNGX2Q6P404Zo-15" value="" style="ellipse;whiteSpace=wrap;html=1;aspect=fixed;" parent="1" vertex="1">
          <mxGeometry x="372" y="158" width="42" height="42" as="geometry" />
        </mxCell>
        <mxCell id="tjj3ngpdNGX2Q6P404Zo-20" value="" style="edgeStyle=none;curved=1;rounded=0;orthogonalLoop=1;jettySize=auto;html=1;fontFamily=Helvetica;fontSize=12;fontColor=default;startSize=8;endSize=8;" parent="1" source="tjj3ngpdNGX2Q6P404Zo-17" target="tjj3ngpdNGX2Q6P404Zo-19" edge="1">
          <mxGeometry relative="1" as="geometry" />
        </mxCell>
        <mxCell id="tjj3ngpdNGX2Q6P404Zo-17" value="" style="ellipse;whiteSpace=wrap;html=1;aspect=fixed;" parent="1" vertex="1">
          <mxGeometry x="467" y="158" width="42" height="42" as="geometry" />
        </mxCell>
        <mxCell id="tjj3ngpdNGX2Q6P404Zo-22" value="" style="edgeStyle=none;curved=1;rounded=0;orthogonalLoop=1;jettySize=auto;html=1;fontFamily=Helvetica;fontSize=12;fontColor=default;startSize=8;endSize=8;exitX=1;exitY=0.5;exitDx=0;exitDy=0;" parent="1" source="tjj3ngpdNGX2Q6P404Zo-19" target="tjj3ngpdNGX2Q6P404Zo-21" edge="1">
          <mxGeometry relative="1" as="geometry">
            <mxPoint x="701.9999999999909" y="177.5" as="sourcePoint" />
          </mxGeometry>
        </mxCell>
        <mxCell id="tjj3ngpdNGX2Q6P404Zo-19" value="" style="ellipse;whiteSpace=wrap;html=1;aspect=fixed;" parent="1" vertex="1">
          <mxGeometry x="555" y="157" width="43" height="43" as="geometry" />
        </mxCell>
        <mxCell id="tjj3ngpdNGX2Q6P404Zo-21" value="" style="ellipse;whiteSpace=wrap;html=1;aspect=fixed;" parent="1" vertex="1">
          <mxGeometry x="667" y="157" width="43" height="43" as="geometry" />
        </mxCell>
        <mxCell id="tjj3ngpdNGX2Q6P404Zo-23" value="" style="ellipse;whiteSpace=wrap;html=1;aspect=fixed;strokeColor=default;align=center;verticalAlign=middle;fontFamily=Helvetica;fontSize=12;fontColor=default;fillColor=default;" parent="1" vertex="1">
          <mxGeometry x="670.5" y="161" width="36" height="36" as="geometry" />
        </mxCell>
        <mxCell id="tjj3ngpdNGX2Q6P404Zo-24" value="i" style="text;html=1;align=center;verticalAlign=middle;whiteSpace=wrap;rounded=0;fontSize=12;fontFamily=Helvetica;fontColor=default;" parent="1" vertex="1">
          <mxGeometry x="-221" y="145" width="60" height="30" as="geometry" />
        </mxCell>
        <mxCell id="tjj3ngpdNGX2Q6P404Zo-25" value="k" style="text;html=1;align=center;verticalAlign=middle;whiteSpace=wrap;rounded=0;fontSize=12;fontFamily=Helvetica;fontColor=default;" parent="1" vertex="1">
          <mxGeometry x="-123" y="137" width="60" height="30" as="geometry" />
        </mxCell>
        <mxCell id="tjj3ngpdNGX2Q6P404Zo-26" value="h" style="text;html=1;align=center;verticalAlign=middle;whiteSpace=wrap;rounded=0;fontSize=12;fontFamily=Helvetica;fontColor=default;" parent="1" vertex="1">
          <mxGeometry x="-26" y="223" width="60" height="30" as="geometry" />
        </mxCell>
        <mxCell id="tjj3ngpdNGX2Q6P404Zo-28" value="u" style="text;html=1;align=center;verticalAlign=middle;whiteSpace=wrap;rounded=0;fontSize=12;fontFamily=Helvetica;fontColor=default;" parent="1" vertex="1">
          <mxGeometry x="54" y="137" width="60" height="30" as="geometry" />
        </mxCell>
        <mxCell id="tjj3ngpdNGX2Q6P404Zo-29" value="t" style="text;html=1;align=center;verticalAlign=middle;whiteSpace=wrap;rounded=0;fontSize=12;fontFamily=Helvetica;fontColor=default;" parent="1" vertex="1">
          <mxGeometry x="138" y="137" width="60" height="30" as="geometry" />
        </mxCell>
        <mxCell id="tjj3ngpdNGX2Q6P404Zo-30" value="-" style="text;html=1;align=center;verticalAlign=middle;whiteSpace=wrap;rounded=0;fontSize=12;fontFamily=Helvetica;fontColor=default;" parent="1" vertex="1">
          <mxGeometry x="229" y="137" width="60" height="30" as="geometry" />
        </mxCell>
        <mxCell id="tjj3ngpdNGX2Q6P404Zo-31" value="e" style="text;html=1;align=center;verticalAlign=middle;whiteSpace=wrap;rounded=0;fontSize=12;fontFamily=Helvetica;fontColor=default;" parent="1" vertex="1">
          <mxGeometry x="321" y="137" width="60" height="30" as="geometry" />
        </mxCell>
        <mxCell id="tjj3ngpdNGX2Q6P404Zo-32" value="i" style="text;html=1;align=center;verticalAlign=middle;whiteSpace=wrap;rounded=0;fontSize=12;fontFamily=Helvetica;fontColor=default;" parent="1" vertex="1">
          <mxGeometry x="405" y="137" width="60" height="30" as="geometry" />
        </mxCell>
        <mxCell id="tjj3ngpdNGX2Q6P404Zo-33" value="g" style="text;html=1;align=center;verticalAlign=middle;whiteSpace=wrap;rounded=0;fontSize=12;fontFamily=Helvetica;fontColor=default;" parent="1" vertex="1">
          <mxGeometry x="504" y="140" width="60" height="30" as="geometry" />
        </mxCell>
        <mxCell id="tjj3ngpdNGX2Q6P404Zo-36" value="h" style="text;html=1;align=center;verticalAlign=middle;whiteSpace=wrap;rounded=0;fontSize=12;fontFamily=Helvetica;fontColor=default;" parent="1" vertex="1">
          <mxGeometry x="596" y="143" width="60" height="30" as="geometry" />
        </mxCell>
        <mxCell id="tjj3ngpdNGX2Q6P404Zo-44" value="" style="edgeStyle=none;curved=1;rounded=0;orthogonalLoop=1;jettySize=auto;html=1;fontFamily=Helvetica;fontSize=12;fontColor=default;startSize=8;endSize=8;entryX=0;entryY=0.488;entryDx=0;entryDy=0;entryPerimeter=0;" parent="1" source="tjj3ngpdNGX2Q6P404Zo-39" target="tjj3ngpdNGX2Q6P404Zo-66" edge="1">
          <mxGeometry relative="1" as="geometry">
            <mxPoint x="42.00000000000114" y="91" as="targetPoint" />
          </mxGeometry>
        </mxCell>
        <mxCell id="tjj3ngpdNGX2Q6P404Zo-39" value="" style="ellipse;whiteSpace=wrap;html=1;aspect=fixed;" parent="1" vertex="1">
          <mxGeometry x="-68" y="70" width="42" height="42" as="geometry" />
        </mxCell>
        <mxCell id="tjj3ngpdNGX2Q6P404Zo-42" value="l" style="text;html=1;align=center;verticalAlign=middle;whiteSpace=wrap;rounded=0;fontSize=12;fontFamily=Helvetica;fontColor=default;" parent="1" vertex="1">
          <mxGeometry x="-155" y="99" width="60" height="30" as="geometry" />
        </mxCell>
        <mxCell id="tjj3ngpdNGX2Q6P404Zo-45" value="m" style="text;html=1;align=center;verticalAlign=middle;whiteSpace=wrap;rounded=0;fontSize=12;fontFamily=Helvetica;fontColor=default;" parent="1" vertex="1">
          <mxGeometry x="-22" y="54" width="60" height="30" as="geometry" />
        </mxCell>
        <mxCell id="tjj3ngpdNGX2Q6P404Zo-46" value="" style="ellipse;whiteSpace=wrap;html=1;aspect=fixed;" parent="1" vertex="1">
          <mxGeometry x="-68" y="239" width="42" height="42" as="geometry" />
        </mxCell>
        <mxCell id="tjj3ngpdNGX2Q6P404Zo-48" value="" style="endArrow=classic;html=1;rounded=0;fontFamily=Helvetica;fontSize=12;fontColor=default;startSize=8;endSize=8;entryX=0;entryY=0.5;entryDx=0;entryDy=0;" parent="1" source="oZ2qrMkHM4FWCjmV2iC9-3" target="tjj3ngpdNGX2Q6P404Zo-50" edge="1">
          <mxGeometry width="50" height="50" relative="1" as="geometry">
            <mxPoint x="-21" y="257" as="sourcePoint" />
            <mxPoint x="98" y="311" as="targetPoint" />
          </mxGeometry>
        </mxCell>
        <mxCell id="tjj3ngpdNGX2Q6P404Zo-52" value="" style="edgeStyle=none;curved=1;rounded=0;orthogonalLoop=1;jettySize=auto;html=1;fontFamily=Helvetica;fontSize=12;fontColor=default;startSize=8;endSize=8;" parent="1" source="tjj3ngpdNGX2Q6P404Zo-50" target="tjj3ngpdNGX2Q6P404Zo-51" edge="1">
          <mxGeometry relative="1" as="geometry" />
        </mxCell>
        <mxCell id="tjj3ngpdNGX2Q6P404Zo-50" value="" style="ellipse;whiteSpace=wrap;html=1;aspect=fixed;" parent="1" vertex="1">
          <mxGeometry x="96" y="242" width="42" height="42" as="geometry" />
        </mxCell>
        <mxCell id="tjj3ngpdNGX2Q6P404Zo-54" value="" style="edgeStyle=none;curved=1;rounded=0;orthogonalLoop=1;jettySize=auto;html=1;fontFamily=Helvetica;fontSize=12;fontColor=default;startSize=8;endSize=8;entryX=0;entryY=0.5;entryDx=0;entryDy=0;" parent="1" source="tjj3ngpdNGX2Q6P404Zo-51" target="tjj3ngpdNGX2Q6P404Zo-71" edge="1">
          <mxGeometry relative="1" as="geometry">
            <mxPoint x="289.00000000000114" y="263" as="targetPoint" />
          </mxGeometry>
        </mxCell>
        <mxCell id="tjj3ngpdNGX2Q6P404Zo-51" value="" style="ellipse;whiteSpace=wrap;html=1;aspect=fixed;" parent="1" vertex="1">
          <mxGeometry x="193" y="242" width="42" height="42" as="geometry" />
        </mxCell>
        <mxCell id="tjj3ngpdNGX2Q6P404Zo-58" value="" style="edgeStyle=none;curved=1;rounded=0;orthogonalLoop=1;jettySize=auto;html=1;fontFamily=Helvetica;fontSize=12;fontColor=default;startSize=8;endSize=8;" parent="1" source="tjj3ngpdNGX2Q6P404Zo-55" target="tjj3ngpdNGX2Q6P404Zo-57" edge="1">
          <mxGeometry relative="1" as="geometry" />
        </mxCell>
        <mxCell id="tjj3ngpdNGX2Q6P404Zo-55" value="" style="ellipse;whiteSpace=wrap;html=1;aspect=fixed;" parent="1" vertex="1">
          <mxGeometry x="-158" y="300" width="42" height="42" as="geometry" />
        </mxCell>
        <mxCell id="tjj3ngpdNGX2Q6P404Zo-76" value="" style="edgeStyle=none;curved=0;rounded=0;orthogonalLoop=1;jettySize=auto;html=1;fontFamily=Helvetica;fontSize=12;fontColor=default;startSize=8;endSize=8;entryX=0.5;entryY=0;entryDx=0;entryDy=0;" parent="1" source="tjj3ngpdNGX2Q6P404Zo-57" target="oZ2qrMkHM4FWCjmV2iC9-1" edge="1">
          <mxGeometry relative="1" as="geometry">
            <Array as="points">
              <mxPoint x="51" y="318" />
            </Array>
            <mxPoint x="51" y="347" as="targetPoint" />
          </mxGeometry>
        </mxCell>
        <mxCell id="tjj3ngpdNGX2Q6P404Zo-57" value="" style="ellipse;whiteSpace=wrap;html=1;aspect=fixed;" parent="1" vertex="1">
          <mxGeometry x="-63" y="300" width="42" height="42" as="geometry" />
        </mxCell>
        <mxCell id="tjj3ngpdNGX2Q6P404Zo-59" value="c" style="text;html=1;align=center;verticalAlign=middle;whiteSpace=wrap;rounded=0;fontSize=12;fontFamily=Helvetica;fontColor=default;" parent="1" vertex="1">
          <mxGeometry x="-119" y="205" width="60" height="30" as="geometry" />
        </mxCell>
        <mxCell id="tjj3ngpdNGX2Q6P404Zo-60" value="h" style="text;html=1;align=center;verticalAlign=middle;whiteSpace=wrap;rounded=0;fontSize=12;fontFamily=Helvetica;fontColor=default;" parent="1" vertex="1">
          <mxGeometry x="-29" y="147" width="60" height="30" as="geometry" />
        </mxCell>
        <mxCell id="tjj3ngpdNGX2Q6P404Zo-61" value="w" style="text;html=1;align=center;verticalAlign=middle;whiteSpace=wrap;rounded=0;fontSize=12;fontFamily=Helvetica;fontColor=default;" parent="1" vertex="1">
          <mxGeometry x="49" y="223" width="60" height="30" as="geometry" />
        </mxCell>
        <mxCell id="tjj3ngpdNGX2Q6P404Zo-64" value="a" style="text;html=1;align=center;verticalAlign=middle;whiteSpace=wrap;rounded=0;fontSize=12;fontFamily=Helvetica;fontColor=default;" parent="1" vertex="1">
          <mxGeometry x="128" y="235" width="60" height="30" as="geometry" />
        </mxCell>
        <mxCell id="tjj3ngpdNGX2Q6P404Zo-65" value="n" style="text;html=1;align=center;verticalAlign=middle;whiteSpace=wrap;rounded=0;fontSize=12;fontFamily=Helvetica;fontColor=default;" parent="1" vertex="1">
          <mxGeometry x="235" y="235" width="60" height="30" as="geometry" />
        </mxCell>
        <mxCell id="tjj3ngpdNGX2Q6P404Zo-70" value="" style="group" parent="1" vertex="1" connectable="0">
          <mxGeometry x="45" y="70" width="43" height="43" as="geometry" />
        </mxCell>
        <mxCell id="tjj3ngpdNGX2Q6P404Zo-66" value="" style="ellipse;whiteSpace=wrap;html=1;aspect=fixed;" parent="tjj3ngpdNGX2Q6P404Zo-70" vertex="1">
          <mxGeometry width="43" height="43" as="geometry" />
        </mxCell>
        <mxCell id="tjj3ngpdNGX2Q6P404Zo-67" value="" style="ellipse;whiteSpace=wrap;html=1;aspect=fixed;strokeColor=default;align=center;verticalAlign=middle;fontFamily=Helvetica;fontSize=12;fontColor=default;fillColor=default;" parent="tjj3ngpdNGX2Q6P404Zo-70" vertex="1">
          <mxGeometry x="3.5" y="4" width="36" height="36" as="geometry" />
        </mxCell>
        <mxCell id="tjj3ngpdNGX2Q6P404Zo-71" value="" style="ellipse;whiteSpace=wrap;html=1;aspect=fixed;" parent="1" vertex="1">
          <mxGeometry x="300" y="241" width="43" height="43" as="geometry" />
        </mxCell>
        <mxCell id="tjj3ngpdNGX2Q6P404Zo-72" value="" style="ellipse;whiteSpace=wrap;html=1;aspect=fixed;strokeColor=default;align=center;verticalAlign=middle;fontFamily=Helvetica;fontSize=12;fontColor=default;fillColor=default;" parent="1" vertex="1">
          <mxGeometry x="303.5" y="245" width="36" height="36" as="geometry" />
        </mxCell>
        <mxCell id="tjj3ngpdNGX2Q6P404Zo-74" value="d" style="text;html=1;align=center;verticalAlign=middle;whiteSpace=wrap;rounded=0;fontSize=12;fontFamily=Helvetica;fontColor=default;" parent="1" vertex="1">
          <mxGeometry x="-183" y="226" width="60" height="30" as="geometry" />
        </mxCell>
        <mxCell id="tjj3ngpdNGX2Q6P404Zo-75" value="r" style="text;html=1;align=center;verticalAlign=middle;whiteSpace=wrap;rounded=0;fontSize=12;fontFamily=Helvetica;fontColor=default;" parent="1" vertex="1">
          <mxGeometry x="-123" y="291" width="60" height="30" as="geometry" />
        </mxCell>
        <mxCell id="tjj3ngpdNGX2Q6P404Zo-77" value="a" style="text;html=1;align=center;verticalAlign=middle;whiteSpace=wrap;rounded=0;fontSize=12;fontFamily=Helvetica;fontColor=default;" parent="1" vertex="1">
          <mxGeometry x="-9" y="293" width="60" height="30" as="geometry" />
        </mxCell>
        <mxCell id="oZ2qrMkHM4FWCjmV2iC9-13" value="" style="edgeStyle=none;curved=1;rounded=0;orthogonalLoop=1;jettySize=auto;html=1;fontSize=12;startSize=8;endSize=8;" edge="1" parent="1" source="oZ2qrMkHM4FWCjmV2iC9-1" target="oZ2qrMkHM4FWCjmV2iC9-11">
          <mxGeometry relative="1" as="geometry" />
        </mxCell>
        <mxCell id="oZ2qrMkHM4FWCjmV2iC9-15" value="" style="edgeStyle=none;curved=1;rounded=0;orthogonalLoop=1;jettySize=auto;html=1;fontSize=12;startSize=8;endSize=8;" edge="1" parent="1" source="oZ2qrMkHM4FWCjmV2iC9-1" target="oZ2qrMkHM4FWCjmV2iC9-7">
          <mxGeometry relative="1" as="geometry" />
        </mxCell>
        <mxCell id="oZ2qrMkHM4FWCjmV2iC9-1" value="" style="ellipse;whiteSpace=wrap;html=1;aspect=fixed;" vertex="1" parent="1">
          <mxGeometry x="29" y="346" width="42" height="42" as="geometry" />
        </mxCell>
        <mxCell id="oZ2qrMkHM4FWCjmV2iC9-4" value="" style="endArrow=classic;html=1;rounded=0;fontFamily=Helvetica;fontSize=12;fontColor=default;startSize=8;endSize=8;entryX=0;entryY=0.5;entryDx=0;entryDy=0;" edge="1" parent="1" target="oZ2qrMkHM4FWCjmV2iC9-3">
          <mxGeometry width="50" height="50" relative="1" as="geometry">
            <mxPoint x="-21" y="257" as="sourcePoint" />
            <mxPoint x="96" y="263" as="targetPoint" />
          </mxGeometry>
        </mxCell>
        <mxCell id="oZ2qrMkHM4FWCjmV2iC9-3" value="" style="ellipse;whiteSpace=wrap;html=1;aspect=fixed;" vertex="1" parent="1">
          <mxGeometry x="18" y="242" width="42" height="42" as="geometry" />
        </mxCell>
        <mxCell id="oZ2qrMkHM4FWCjmV2iC9-5" value="" style="group" vertex="1" connectable="0" parent="1">
          <mxGeometry x="128" y="345" width="43" height="43" as="geometry" />
        </mxCell>
        <mxCell id="oZ2qrMkHM4FWCjmV2iC9-6" value="" style="ellipse;whiteSpace=wrap;html=1;aspect=fixed;" vertex="1" parent="oZ2qrMkHM4FWCjmV2iC9-5">
          <mxGeometry width="43" height="43" as="geometry" />
        </mxCell>
        <mxCell id="oZ2qrMkHM4FWCjmV2iC9-7" value="" style="ellipse;whiteSpace=wrap;html=1;aspect=fixed;strokeColor=default;align=center;verticalAlign=middle;fontFamily=Helvetica;fontSize=12;fontColor=default;fillColor=default;" vertex="1" parent="oZ2qrMkHM4FWCjmV2iC9-5">
          <mxGeometry x="3.5" y="4" width="36" height="36" as="geometry" />
        </mxCell>
        <mxCell id="oZ2qrMkHM4FWCjmV2iC9-8" value="s" style="text;html=1;align=center;verticalAlign=middle;whiteSpace=wrap;rounded=0;fontSize=12;fontFamily=Helvetica;fontColor=default;" vertex="1" parent="1">
          <mxGeometry x="71" y="337" width="60" height="30" as="geometry" />
        </mxCell>
        <mxCell id="oZ2qrMkHM4FWCjmV2iC9-9" value="" style="group" vertex="1" connectable="0" parent="1">
          <mxGeometry x="28" y="455" width="43" height="43" as="geometry" />
        </mxCell>
        <mxCell id="oZ2qrMkHM4FWCjmV2iC9-10" value="" style="ellipse;whiteSpace=wrap;html=1;aspect=fixed;" vertex="1" parent="oZ2qrMkHM4FWCjmV2iC9-9">
          <mxGeometry width="43" height="43" as="geometry" />
        </mxCell>
        <mxCell id="oZ2qrMkHM4FWCjmV2iC9-11" value="" style="ellipse;whiteSpace=wrap;html=1;aspect=fixed;strokeColor=default;align=center;verticalAlign=middle;fontFamily=Helvetica;fontSize=12;fontColor=default;fillColor=default;" vertex="1" parent="oZ2qrMkHM4FWCjmV2iC9-9">
          <mxGeometry x="3.5" y="4" width="36" height="36" as="geometry" />
        </mxCell>
        <mxCell id="oZ2qrMkHM4FWCjmV2iC9-12" value="y" style="text;html=1;align=center;verticalAlign=middle;whiteSpace=wrap;rounded=0;fontSize=12;fontFamily=Helvetica;fontColor=default;" vertex="1" parent="1">
          <mxGeometry x="-2" y="404" width="60" height="30" as="geometry" />
        </mxCell>
        <mxCell id="oZ2qrMkHM4FWCjmV2iC9-16" value="T=[i,l,m,.k,h,u,t,-,e,g,h,c,w,a,n,d,r,s,y]" style="text;html=1;align=center;verticalAlign=middle;whiteSpace=wrap;rounded=0;fontSize=16;" vertex="1" parent="1">
          <mxGeometry x="224" y="437" width="332" height="40" as="geometry" />
        </mxCell>
      </root>
    </mxGraphModel>
  </diagram>
</mxfile>
